<?xml version="1.0" encoding="utf-8"?>
<!-- Generator: Adobe Illustrator 23.0.1, SVG Export Plug-In . SVG Version: 6.00 Build 0)  -->
<svg version="1.1" id="Layer_1" xmlns="http://www.w3.org/2000/svg" xmlns:xlink="http://www.w3.org/1999/xlink" x="0px" y="0px"
	 viewBox="0 0 539.7 38.6" style="enable-background:new 0 0 539.7 38.6;" xml:space="preserve">
<style type="text/css">
	.st0{fill:#C294C3;}
	.st1{fill:#FFFFFF;}
	.st2{fill:#5EB3B3;}
</style>
<title>logosvg</title>
<path class="st0" d="M17.4,7.4C17,7.2,16.6,7,16.2,6.9c-0.6-0.1-1.1-0.2-1.7-0.2c-0.6-0.1-1.2,0.1-1.7,0.5c-0.4,0.3-0.8,0.8-1,1.3
	c-0.1,0.3-0.3,0.7-0.4,1.1S11,10.4,10.8,11L10,13.7h6c0.3,0,0.4,0.2,0.3,0.5l-0.9,3c0,0.1-0.1,0.2-0.2,0.3c-0.1,0.1-0.2,0.1-0.4,0.1
	h-6L4.7,32.3c-0.1,0.3-0.3,0.5-0.6,0.5H0.9c-0.3,0-0.4-0.2-0.3-0.5l4.2-14.7H0.4c-0.1,0-0.2,0-0.3-0.1c0-0.1,0-0.2,0-0.3l0.9-3
	c0-0.1,0.1-0.3,0.2-0.3c0.1-0.1,0.2-0.1,0.4-0.1h4.3l0.7-2.4c0.3-1.2,0.7-2.3,1.2-3.4c0.4-1,1-1.9,1.7-2.7c0.6-0.7,1.4-1.2,2.2-1.6
	c1.1-0.5,2.3-0.7,3.4-0.6c0.7,0,1.3,0.1,2,0.2c0.6,0.1,1.1,0.3,1.6,0.5C19,3.7,19,3.9,19,4.2L18,6.8C17.8,7.3,17.6,7.5,17.4,7.4z"/>
<path class="st0" d="M29.6,30.1c-1,1-2.1,1.9-3.4,2.5c-1.2,0.6-2.4,0.8-3.7,0.8c-1.1,0-2.2-0.2-3.2-0.8c-0.8-0.6-1.5-1.4-1.8-2.3
	c-0.4-1.1-0.6-2.2-0.6-3.4c0-1.4,0.3-2.8,0.7-4.1c0.4-1.4,1-2.8,1.7-4.1c0.7-1.2,1.5-2.4,2.5-3.4c0.9-0.9,2-1.7,3.2-2.3
	c1.2-0.6,2.4-0.8,3.7-0.8c1.1,0,2.2,0.2,3.2,0.8c0.8,0.5,1.5,1.3,1.9,2.3c0.4,1.1,0.6,2.2,0.6,3.4c0,1.4-0.3,2.8-0.7,4.1
	c-0.4,1.4-1,2.7-1.7,4C31.4,28,30.6,29.1,29.6,30.1z M27.5,16.1c-0.7,0-1.3,0.2-1.9,0.6c-0.6,0.4-1.1,0.9-1.6,1.5
	c-0.5,0.7-0.9,1.4-1.3,2.2c-0.4,0.8-0.7,1.6-1,2.4c-0.2,0.8-0.4,1.6-0.4,2.4c-0.1,0.7,0,1.5,0.1,2.2c0.1,0.6,0.3,1.1,0.7,1.6
	c0.4,0.4,1,0.6,1.5,0.6c0.7,0,1.3-0.2,1.9-0.6c0.6-0.4,1.2-0.9,1.6-1.6c0.5-0.7,1-1.4,1.3-2.2c0.4-0.8,0.7-1.6,1-2.4
	c0.2-0.8,0.4-1.6,0.4-2.4c0.1-0.7,0-1.4-0.1-2.1c-0.1-0.6-0.3-1.1-0.7-1.6C28.7,16.3,28.1,16.1,27.5,16.1L27.5,16.1z"/>
<path class="st0" d="M34.7,32.8c-0.1,0-0.2,0-0.3-0.1c-0.1-0.1-0.1-0.3,0-0.4l0.9-3c0-0.2,0.1-0.3,0.2-0.4c0.1-0.1,0.2-0.1,0.4-0.1
	h2.5L41.4,18l0.4-1.4h-3.2c-0.1,0-0.2,0-0.3-0.1c-0.1-0.1-0.1-0.3,0-0.4l0.8-2.9c0-0.1,0.1-0.2,0.2-0.3c0.1-0.1,0.2-0.1,0.4-0.1h6.4
	c0.1,0,0.2,0,0.2,0.1c0,0.1,0,0.2,0,0.3l-1,3.3c0.4-0.5,0.8-1,1.2-1.4c0.4-0.4,0.8-0.8,1.3-1.1c0.5-0.3,1-0.6,1.5-0.9
	c0.7-0.3,1.4-0.6,2.2-0.7c1.1-0.2,2.2-0.2,3.2,0.1c0.9,0.2,1.7,0.6,2.3,1.2c0.1,0.1,0.1,0.2,0.1,0.4L57,14.2L55,16.9
	c-0.1,0.1-0.2,0.2-0.3,0.3c-0.1,0.1-0.3,0-0.4-0.1c-0.5-0.3-1.2-0.6-1.8-0.7c-0.7-0.1-1.4-0.1-2.1,0c-1.3,0.2-2.5,0.8-3.4,1.8
	C46,19,45.3,19.9,44.8,21c-0.5,1.1-0.9,2.2-1.2,3.4l-1.3,4.4h4.1c0.1,0,0.2,0,0.3,0.1c0.1,0.1,0.1,0.2,0,0.3l-0.9,3
	c0,0.3-0.3,0.5-0.6,0.5L34.7,32.8z"/>
<path class="st1" d="M68,38.1c-0.2,0-0.4-0.1-0.5-0.4c-2.3-2.7-4.1-5.8-5.3-9.1c-2.2-6.2-2.2-12.9,0-19.1c1.3-3.3,3.1-6.4,5.3-9.2
	C67.6,0.1,67.8,0,68,0h2.9c0.3,0,0.4,0.1,0.2,0.4c-1.9,2.9-3.5,6.1-4.6,9.5c-1,2.9-1.5,6-1.5,9.1c0,3.1,0.5,6.2,1.5,9.2
	c1.1,3.3,2.7,6.5,4.6,9.5c0.1,0.1,0.1,0.2,0.1,0.3c0,0.1-0.1,0.1-0.3,0.1L68,38.1z"/>
<g>
	<path class="st1" d="M92.2,32.3c-0.6,0.2-1.2,0.4-1.9,0.6c-2.1,0.5-4.4,0.3-6.3-0.8c-1.4-0.7-2.5-1.8-3.4-3.1
		c-1-1.4-1.7-2.9-2.1-4.6c-1-3.5-1-7.1,0-10.6c0.4-1.6,1.1-3.1,2.1-4.5c0.9-1.2,2-2.3,3.4-3c1.2-0.7,2.6-1.1,4-1.1
		c0.7,0,1.3,0.1,2,0.2c0.7,0.1,1.5,0.3,2.2,0.6c0.2,0.1,0.3,0.2,0.4,0.3c0,0.2,0,0.4,0,0.5v3c0,0.4,0,0.5-0.1,0.6
		c-0.2,0-0.4,0-0.5-0.1c-1.2-0.6-2.5-0.9-3.8-0.9c-0.9,0-1.8,0.3-2.5,0.8c-0.8,0.6-1.5,1.3-1.9,2.2c-0.5,1-0.9,2.1-1.1,3.3
		c-0.3,1.1-0.4,2.3-0.4,3.5c0,1.2,0.2,2.4,0.4,3.5c0.3,1.1,0.7,2.2,1.2,3.3c0.5,0.9,1.1,1.7,2,2.3c0.7,0.5,1.6,0.8,2.5,0.8
		c0.6,0,1.2-0.1,1.8-0.2c0.6-0.1,1.3-0.3,1.9-0.6c0.3-0.1,0.4-0.2,0.5-0.1c0.1,0.1,0.1,0.2,0.1,0.3l0.1,3c0,0.2,0,0.4,0,0.5
		C92.5,32.2,92.3,32.3,92.2,32.3z"/>
	<path class="st1" d="M108.4,32.8c-0.2,0-0.4-0.1-0.5-0.4c0,0,0-0.1,0-0.1V22c0.1-1.5-0.1-2.9-0.7-4.3c-0.4-0.9-1.2-1.4-2.1-1.4
		c-2.4,0-3.7,1.4-3.9,4.1v11.9c0,0.3-0.1,0.5-0.4,0.5h-3.3c-0.1,0-0.2-0.1-0.3-0.1c-0.1-0.1-0.1-0.2-0.1-0.3V3.9
		c0-0.1,0-0.2,0.1-0.3c0.1-0.1,0.2-0.1,0.3-0.1h3c0.1,0,0.2,0.1,0.3,0.1c0.1,0.1,0.1,0.2,0.1,0.3v10.5c0.5-0.7,1.2-1.2,2-1.6
		c0.7-0.3,1.5-0.5,2.4-0.5c4.5,0,6.8,3.2,6.8,9.5v10.4c0,0.1,0,0.2-0.1,0.3c-0.1,0.1-0.2,0.1-0.3,0.1H108.4z"/>
	<path class="st1" d="M128.6,32.8c-0.1,0-0.2,0-0.3,0c0,0-0.1-0.1-0.1-0.3v-1.8c-0.6,0.9-1.4,1.5-2.3,2c-0.9,0.4-1.9,0.7-2.9,0.7
		c-0.8,0-1.6-0.2-2.4-0.4c-0.8-0.3-1.5-0.7-2.2-1.2c-0.6-0.6-1.1-1.2-1.4-2c-0.4-0.9-0.6-1.8-0.5-2.7c0-1.1,0.2-2.1,0.7-3.1
		c0.5-0.9,1.2-1.8,2.1-2.3c1-0.7,2.2-1.1,3.4-1.4c1.7-0.3,3.4-0.5,5.1-0.5c0-0.4,0-0.9-0.1-1.3c-0.1-0.4-0.3-0.8-0.5-1.2
		c-0.3-0.4-0.6-0.7-1-0.9c-0.5-0.3-1-0.4-1.6-0.4c-0.9,0-1.8,0.2-2.6,0.5c-0.9,0.3-1.7,0.8-2.5,1.3c-0.4,0.3-0.6,0.4-0.8,0.4
		s-0.2-0.2-0.2-0.4v-3c0,0,0-0.1,0-0.3c0-0.1,0-0.3,0.1-0.3c0.1-0.1,0.3-0.3,0.5-0.4c0.8-0.5,1.7-0.8,2.6-1.1
		c0.9-0.3,1.9-0.4,2.8-0.4c2.5,0,4.4,0.6,5.6,1.9c1.3,1.5,2,3.5,1.9,5.4v8.6c0,0.7,0,1.4,0,2.1c0,0.6,0.1,1.3,0.1,1.9
		c0,0.4-0.1,0.5-0.4,0.5L128.6,32.8z M120.7,26.8c-0.1,0.8,0.2,1.6,0.8,2.1c0.5,0.4,1.1,0.7,1.8,0.7c1.3,0,2.6-0.6,3.4-1.6
		c0.9-1.1,1.4-2.5,1.3-3.9v-0.4c-2.8,0-4.7,0.3-5.7,0.8C121.3,24.9,120.7,25.8,120.7,26.8L120.7,26.8z"/>
	<path class="st1" d="M147.9,32.8c-0.1,0-0.3-0.1-0.3-0.2c-0.1-0.1-0.1-0.2-0.1-0.4V21.4c0.1-1.4-0.2-2.8-0.7-4
		c-0.4-0.8-1.3-1.3-2.2-1.3c-1.1,0-2.1,0.5-2.8,1.4c-0.8,1.2-1.2,2.7-1.1,4.1v10.7c0,0.3-0.1,0.5-0.5,0.5h-3.2
		c-0.1,0-0.3-0.1-0.3-0.2c-0.1-0.1-0.1-0.2-0.1-0.4v-14c0-1,0-1.9,0-2.8s0-1.6-0.1-2.1c0-0.3,0.1-0.5,0.5-0.5h3
		c0.3,0,0.4,0.1,0.4,0.3v1.4c0.5-0.7,1.1-1.2,1.8-1.6c0.8-0.4,1.6-0.7,2.5-0.7c1.8,0,3.6,0.7,4.9,2.1c1.4,1.4,2,3.5,2,6.5v11.5
		c0,0.3-0.1,0.5-0.5,0.5L147.9,32.8z"/>
	<path class="st1" d="M162.3,38.6c-0.9,0-1.7-0.1-2.6-0.2c-0.9-0.1-1.7-0.4-2.5-0.7c-0.2-0.1-0.3-0.2-0.4-0.3
		c-0.1-0.1-0.1-0.2-0.1-0.4l0.2-3.2c0-0.4,0.2-0.5,0.7-0.4c0.8,0.4,1.6,0.7,2.4,0.9c0.8,0.2,1.6,0.3,2.5,0.3
		c1.3,0.1,2.5-0.4,3.3-1.3c0.8-1,1.3-2.2,1.2-3.5c-0.5,0.6-1.1,1.2-1.9,1.5c-0.7,0.3-1.4,0.5-2.2,0.5c-1,0-2-0.2-2.9-0.6
		c-0.9-0.5-1.8-1.2-2.4-2c-0.8-0.9-1.4-2-1.7-3.2c-0.4-1.2-0.6-2.4-0.6-3.7c-0.1-2.6,0.6-5.2,2.1-7.4c1.3-1.8,3.3-2.8,5.5-2.7
		c0.6,0,1.3,0.1,1.9,0.3c0.6,0.2,1.1,0.5,1.6,0.9c0.4,0.3,0.8,0.8,1.1,1.2v-1.4c0-0.1,0-0.3,0-0.4c0.1-0.1,0.3-0.1,0.4-0.1h2.8
		c0.3,0,0.4,0.2,0.4,0.5v15c0,3.3-0.7,5.8-2.2,7.6C167.1,37.8,164.8,38.8,162.3,38.6z M163.2,16.2c-1.2,0-2.3,0.7-2.8,1.8
		c-0.7,1.4-1,2.9-1,4.5c0,0.8,0.1,1.7,0.3,2.5c0.2,0.7,0.4,1.3,0.8,1.8c0.3,0.4,0.7,0.8,1.1,1.1c0.4,0.3,0.9,0.4,1.3,0.4
		c0.5,0,1-0.1,1.5-0.4c0.4-0.3,0.8-0.6,1.1-1.1c0.4-0.6,0.6-1.2,0.8-1.8c0.2-0.8,0.3-1.7,0.3-2.5c0.1-1.6-0.3-3.1-0.9-4.5
		C165.4,16.9,164.3,16.2,163.2,16.2z"/>
	<path class="st1" d="M190.7,24c0,0.2,0,0.3-0.1,0.5c-0.1,0.1-0.2,0.1-0.4,0.1h-10.7c0,1.3,0.4,2.5,1.1,3.5c0.8,1,2,1.6,3.3,1.5
		c0.8,0,1.7-0.1,2.5-0.3c0.8-0.3,1.5-0.6,2.2-1.1c0.2-0.1,0.3-0.1,0.4,0c0,0.2,0.1,0.3,0.1,0.5v2.8c0,0.2,0,0.4-0.1,0.5
		c-0.1,0.1-0.2,0.3-0.4,0.4c-0.6,0.4-1.3,0.6-2,0.9c-0.8,0.2-1.7,0.3-2.6,0.3c-3,0-5.2-1-6.6-2.9c-1.5-2.2-2.3-4.8-2.2-7.5
		c0-1.3,0.2-2.6,0.5-3.9c0.3-1.2,0.8-2.4,1.5-3.4c0.6-1,1.5-1.9,2.5-2.5c1-0.7,2.3-1,3.5-1c1.2,0,2.5,0.3,3.6,0.9
		c1,0.6,1.8,1.4,2.4,2.4c0.6,1,1.1,2.2,1.3,3.3c0.3,1.3,0.4,2.7,0.4,4c0,0.2,0,0.4,0,0.6S190.7,23.9,190.7,24z M183,16
		c-0.6,0-1.2,0.2-1.7,0.5c-0.5,0.4-0.9,0.8-1.1,1.4c-0.3,0.5-0.4,1-0.5,1.6c-0.1,0.4-0.1,0.8-0.1,1.1h7c0-0.4-0.1-0.8-0.1-1.1
		c-0.1-0.6-0.3-1.1-0.5-1.6c-0.3-0.6-0.6-1-1.1-1.4C184.2,16.1,183.6,16,183,16L183,16z"/>
</g>
<path class="st2" d="M210.6,32.8c-0.1,0-0.2,0-0.3-0.1c-0.1-0.1-0.1-0.3,0-0.4l0.9-3c0-0.1,0.1-0.2,0.2-0.3c0.1-0.1,0.2-0.1,0.4-0.1
	h5.3l3.5-12h-4.6c-0.1,0-0.2,0-0.3-0.1c-0.1-0.1-0.1-0.3,0-0.4l0.9-3c0-0.1,0.1-0.3,0.2-0.3c0.1-0.1,0.2-0.1,0.4-0.1h8.3
	c0.1,0,0.2,0,0.3,0.1c0.1,0.1,0.1,0.2,0,0.3l-4.5,15.6h4.8c0.1,0,0.2,0,0.3,0.1c0,0.1,0,0.2,0,0.3l-0.9,3c0,0.3-0.3,0.5-0.6,0.5
	L210.6,32.8z M224.1,9.7c-0.7,0.1-1.4-0.3-1.9-0.9c-0.4-0.6-0.5-1.4-0.3-2.1c0.2-0.9,0.8-1.6,1.5-2.2c0.7-0.6,1.5-0.9,2.4-0.9
	c0.7-0.1,1.5,0.3,1.9,0.9c0.4,0.6,0.5,1.4,0.3,2.2c-0.3,0.8-0.8,1.6-1.5,2.1C225.8,9.4,225,9.7,224.1,9.7L224.1,9.7z"/>
<path class="st2" d="M241.2,32.8c-0.1,0-0.2-0.1-0.3-0.2c0-0.1,0-0.3,0-0.4l3.1-10.9c0.5-1.3,0.6-2.7,0.4-4c-0.2-0.8-1-1.3-1.8-1.3
	c-1.2,0-2.4,0.5-3.2,1.4c-1.1,1.1-1.9,2.6-2.3,4.1l-3.1,10.7c-0.1,0.3-0.3,0.5-0.6,0.5h-3.2c-0.1,0-0.2-0.1-0.3-0.2
	c0-0.1,0-0.3,0-0.4l4-14c0.3-1,0.5-1.9,0.8-2.8s0.4-1.6,0.5-2.1c0.1-0.3,0.3-0.5,0.7-0.5h3c0.3,0,0.4,0.1,0.3,0.3l-0.5,1.4
	c0.7-0.7,1.5-1.2,2.3-1.6c0.8-0.4,1.8-0.7,2.7-0.7c1.7-0.1,3.3,0.7,4.3,2.1c1,1.4,1,3.5,0.2,6.5L245,32.3c-0.1,0.3-0.3,0.5-0.6,0.5
	H241.2z"/>
<path class="st1" d="M282.6,9.8v22.5c0,0.2-0.1,0.4-0.4,0.5c0,0-0.1,0-0.1,0h-3.5c-0.2,0-0.4-0.1-0.5-0.4c0,0,0-0.1,0-0.1V9.8h-6.1
	c-0.1,0-0.2,0-0.3-0.1c-0.1-0.1-0.1-0.2-0.1-0.4V6.2c0-0.3,0.2-0.5,0.5-0.5h16.7c0.3,0,0.5,0.2,0.5,0.5v3.1c0,0.3-0.2,0.5-0.5,0.5
	H282.6z"/>
<path class="st1" d="M307.7,24c0,0.2,0,0.3-0.1,0.5c-0.1,0.1-0.2,0.1-0.4,0.1h-10.7c0,1.3,0.4,2.5,1.1,3.5c0.8,1,2,1.6,3.3,1.5
	c0.8,0,1.7-0.1,2.5-0.3c0.8-0.3,1.5-0.6,2.2-1.1c0.2-0.1,0.3-0.1,0.4,0c0,0.2,0.1,0.3,0.1,0.5v2.8c0,0.2,0,0.4-0.1,0.5
	c-0.1,0.1-0.2,0.3-0.4,0.4c-0.6,0.4-1.3,0.6-2,0.9c-0.8,0.2-1.7,0.3-2.6,0.3c-3,0-5.2-1-6.6-2.9c-1.5-2.2-2.3-4.8-2.2-7.5
	c0-1.3,0.2-2.6,0.5-3.9c0.3-1.2,0.8-2.4,1.5-3.4c0.6-1,1.5-1.9,2.5-2.5c1-0.7,2.3-1,3.5-1c1.2,0,2.5,0.3,3.6,0.9
	c1,0.6,1.8,1.4,2.4,2.4c0.6,1,1.1,2.2,1.3,3.3c0.3,1.3,0.4,2.7,0.4,4c0,0.2,0,0.4,0,0.6S307.7,23.9,307.7,24z M300,16
	c-0.6,0-1.2,0.2-1.7,0.5c-0.5,0.4-0.9,0.8-1.1,1.4c-0.3,0.5-0.4,1-0.5,1.6c-0.1,0.4-0.1,0.8-0.1,1.1h7c0-0.4-0.1-0.8-0.1-1.1
	c-0.1-0.6-0.3-1.1-0.5-1.6c-0.3-0.6-0.6-1-1.2-1.4C301.2,16.1,300.6,16,300,16L300,16z"/>
<path class="st1" d="M326.1,32.7c-0.3,0.1-0.7,0.2-1,0.3c-0.4,0.1-0.8,0.1-1.3,0.2s-0.9,0.1-1.3,0.1s-0.8,0-1.3,0
	c-1.3-0.1-2.6-0.4-3.8-1c-1-0.6-2-1.3-2.8-2.2c-0.8-0.9-1.4-2-1.8-3.2c-0.4-1.3-0.6-2.6-0.6-4c0-1.4,0.2-2.9,0.7-4.2
	c0.5-1.2,1.2-2.4,2-3.3c1.8-2,4.3-3,6.9-2.9c0.7,0,1.4,0.1,2.1,0.2c0.8,0.1,1.5,0.3,2.2,0.6c0.1,0,0.2,0.1,0.2,0.1
	c0,0.1,0,0.3,0,0.5l-0.4,2.7c0,0.1-0.1,0.3-0.2,0.4c-0.1,0.1-0.2,0.1-0.4,0c-0.6-0.2-1.2-0.4-1.8-0.5c-0.7-0.1-1.3-0.2-2-0.1
	c-1.6-0.1-3.2,0.6-4.1,1.9c-0.9,1.4-1.3,3.1-1.3,4.7c-0.1,1.6,0.4,3.2,1.3,4.5c0.9,1.2,2.2,2,3.7,2.1c1.4,0.2,2.9,0.1,4.3-0.4
	c0.2-0.1,0.4-0.1,0.4,0c0.1,0.1,0.1,0.2,0.1,0.4l0.2,2.7c0,0.1,0,0.3,0,0.4C326.4,32.6,326.3,32.7,326.1,32.7z"/>
<path class="st1" d="M342.4,32.8c-0.2,0-0.4-0.1-0.5-0.4c0,0,0-0.1,0-0.1V22c0.1-1.5-0.1-2.9-0.7-4.3c-0.4-0.9-1.2-1.4-2.2-1.4
	c-2.4,0-3.7,1.4-3.9,4.1v11.9c0,0.3-0.1,0.5-0.4,0.5h-3.3c-0.1,0-0.2-0.1-0.3-0.1c-0.1-0.1-0.1-0.2-0.1-0.3V3.9c0-0.1,0-0.2,0.1-0.3
	c0.1-0.1,0.2-0.1,0.3-0.1h3c0.1,0,0.2,0.1,0.3,0.1c0.1,0.1,0.1,0.2,0.1,0.3v10.5c0.5-0.7,1.2-1.2,2-1.6c0.7-0.3,1.5-0.5,2.4-0.5
	c4.5,0,6.8,3.2,6.8,9.5v10.4c0,0.1,0,0.2-0.1,0.3c-0.1,0.1-0.2,0.1-0.3,0.1H342.4z"/>
<path class="st1" d="M362.4,32.8c-0.1,0-0.3-0.1-0.3-0.2c-0.1-0.1-0.1-0.2-0.1-0.4V21.4c0.1-1.4-0.2-2.8-0.7-4
	c-0.4-0.8-1.3-1.3-2.2-1.3c-1.1,0-2.1,0.5-2.8,1.4c-0.8,1.2-1.2,2.7-1.1,4.1v10.7c0,0.3-0.2,0.5-0.5,0.5h-3.2
	c-0.1,0-0.3-0.1-0.3-0.2c-0.1-0.1-0.1-0.2-0.1-0.4v-14c0-1,0-1.9,0-2.8s0-1.6-0.1-2.1c0-0.3,0.1-0.5,0.5-0.5h3
	c0.3,0,0.4,0.1,0.3,0.3v1.4c0.5-0.7,1.1-1.2,1.8-1.6c0.8-0.4,1.6-0.7,2.5-0.7c1.8,0,3.6,0.7,4.8,2.1c1.4,1.4,2,3.5,2,6.5v11.5
	c0,0.3-0.2,0.5-0.5,0.5L362.4,32.8z"/>
<path class="st1" d="M384,30.1c-0.7,1-1.6,1.9-2.7,2.5c-2.2,1.1-4.7,1.1-6.9,0c-1-0.6-1.9-1.3-2.5-2.3c-0.7-1-1.2-2.2-1.5-3.4
	c-0.7-2.7-0.7-5.5,0-8.2c0.3-1.2,0.8-2.3,1.5-3.4c0.7-0.9,1.5-1.7,2.5-2.3c2.2-1.1,4.7-1.1,6.9,0c1,0.5,1.9,1.3,2.5,2.3
	c0.7,1,1.2,2.1,1.5,3.4c0.3,1.3,0.5,2.7,0.5,4.1c0,1.4-0.2,2.7-0.5,4C385.2,28,384.7,29.1,384,30.1z M377.9,16.1
	c-0.6,0-1.2,0.2-1.7,0.6c-0.5,0.4-0.9,0.9-1.2,1.5c-0.3,0.7-0.6,1.4-0.7,2.2c-0.2,0.8-0.3,1.6-0.3,2.4c0,0.8,0.1,1.6,0.3,2.4
	c0.2,0.7,0.4,1.5,0.7,2.2c0.3,0.6,0.7,1.1,1.2,1.6c1,0.8,2.4,0.8,3.4,0c0.5-0.4,0.9-1,1.2-1.6c0.3-0.7,0.6-1.4,0.7-2.2
	c0.2-0.8,0.2-1.6,0.3-2.4c0-0.8-0.1-1.6-0.3-2.4c-0.2-0.7-0.4-1.5-0.7-2.1c-0.3-0.6-0.7-1.1-1.2-1.6
	C379.1,16.3,378.5,16.1,377.9,16.1L377.9,16.1z"/>
<path class="st1" d="M390.4,32.8c-0.1,0-0.2,0-0.3-0.1c-0.1-0.1-0.2-0.2-0.1-0.4v-3c0-0.1,0-0.2,0.1-0.3c0.1-0.1,0.2-0.1,0.3-0.1
	h5.3V7.5h-4.1c-0.1,0-0.2,0-0.3-0.1c-0.1-0.1-0.1-0.2-0.1-0.4V4c0-0.1,0-0.2,0.1-0.3c0.1-0.1,0.2-0.1,0.3-0.1h7.8
	c0.1,0,0.2,0.1,0.3,0.1c0.1,0.1,0.1,0.2,0.1,0.3v24.8h4.8c0.3,0,0.5,0.2,0.5,0.5v3c0,0.3-0.2,0.5-0.5,0.5H390.4z"/>
<path class="st1" d="M423,30.1c-0.7,1-1.6,1.9-2.7,2.5c-2.2,1.1-4.7,1.1-6.9,0c-1-0.6-1.9-1.3-2.5-2.3c-0.7-1-1.2-2.2-1.5-3.4
	c-0.7-2.7-0.7-5.5,0-8.2c0.3-1.2,0.8-2.3,1.5-3.4c0.7-0.9,1.5-1.7,2.5-2.3c2.2-1.1,4.7-1.1,6.9,0c1,0.5,1.9,1.3,2.5,2.3
	c0.7,1,1.2,2.1,1.5,3.4c0.3,1.3,0.5,2.7,0.5,4.1c0,1.4-0.2,2.7-0.5,4C424.2,28,423.7,29.1,423,30.1z M416.9,16.1
	c-0.6,0-1.2,0.2-1.7,0.6c-0.5,0.4-0.9,0.9-1.2,1.5c-0.3,0.7-0.6,1.4-0.7,2.2c-0.2,0.8-0.3,1.6-0.3,2.4c0,0.8,0.1,1.6,0.3,2.4
	c0.2,0.7,0.4,1.5,0.7,2.2c0.3,0.6,0.7,1.1,1.2,1.6c1,0.8,2.4,0.8,3.4,0c0.5-0.4,0.9-1,1.2-1.6c0.3-0.7,0.6-1.4,0.7-2.2
	c0.2-0.8,0.2-1.6,0.3-2.4c0-0.8-0.1-1.6-0.3-2.4c-0.2-0.7-0.4-1.5-0.7-2.1c-0.3-0.6-0.7-1.1-1.2-1.6
	C418.1,16.3,417.5,16.1,416.9,16.1L416.9,16.1z"/>
<path class="st1" d="M435.3,38.6c-0.9,0-1.7-0.1-2.6-0.2c-0.9-0.1-1.7-0.4-2.5-0.7c-0.2-0.1-0.3-0.2-0.4-0.3
	c-0.1-0.1-0.1-0.2-0.1-0.4l0.2-3.2c0-0.4,0.2-0.5,0.7-0.4c0.8,0.4,1.6,0.7,2.4,0.9c0.8,0.2,1.6,0.3,2.5,0.3c1.3,0.1,2.5-0.4,3.3-1.3
	c0.8-1,1.3-2.2,1.2-3.5c-0.5,0.6-1.1,1.2-1.9,1.5c-0.7,0.3-1.4,0.5-2.2,0.5c-1,0-2-0.2-2.9-0.6c-0.9-0.5-1.8-1.2-2.4-2
	c-0.8-0.9-1.4-2-1.7-3.2c-0.4-1.2-0.6-2.4-0.6-3.7c-0.1-2.6,0.6-5.2,2.1-7.4c1.3-1.8,3.3-2.8,5.5-2.7c0.6,0,1.3,0.1,1.9,0.3
	c0.6,0.2,1.1,0.5,1.6,0.9c0.4,0.3,0.8,0.8,1.1,1.2v-1.4c0-0.1,0-0.3,0-0.4c0.1-0.1,0.3-0.1,0.4-0.1h2.8c0.3,0,0.4,0.2,0.4,0.5v15
	c0,3.3-0.7,5.8-2.2,7.6C440.1,37.8,437.8,38.8,435.3,38.6z M436.2,16.2c-1.2,0-2.3,0.7-2.8,1.8c-0.7,1.4-1,2.9-1,4.5
	c0,0.8,0.1,1.7,0.3,2.5c0.2,0.7,0.4,1.3,0.8,1.8c0.3,0.4,0.7,0.8,1.1,1.1c0.4,0.3,0.9,0.4,1.3,0.4c0.5,0,1-0.1,1.5-0.4
	c0.4-0.3,0.8-0.6,1.1-1.1c0.4-0.6,0.6-1.2,0.8-1.8c0.2-0.8,0.3-1.7,0.3-2.5c0.1-1.6-0.3-3.1-0.9-4.5
	C438.4,16.9,437.3,16.2,436.2,16.2z"/>
<path class="st1" d="M451.2,38.6c-0.5,0-0.9,0-1.4-0.1c-0.4-0.1-0.8-0.2-1.2-0.3c-0.1,0-0.2-0.1-0.3-0.2c-0.1-0.1-0.1-0.2-0.1-0.4
	l0.2-2.6c0-0.3,0.1-0.5,0.4-0.4c0.3,0.1,0.7,0.2,1,0.2c0.3,0,0.6,0,0.9,0c0.3,0,0.7,0,1-0.2c0.3-0.1,0.5-0.3,0.6-0.5
	c0.1-0.3,0.3-0.5,0.4-0.8s0.3-0.6,0.4-0.9s0.2-0.7,0.4-1.1s0.3-0.8,0.4-1.2l-5.9-17.2c-0.1-0.3,0-0.5,0.3-0.5h3.2
	c0.3,0,0.4,0.1,0.5,0.5l3.9,11.7l4-11.7c0.1-0.3,0.2-0.5,0.5-0.5h3.3c0.3,0,0.4,0.1,0.3,0.5l-7.1,20.3c-0.4,1.5-1.2,2.9-2.3,4
	C453.6,38.2,452.4,38.6,451.2,38.6z"/>
<path class="st1" d="M473.9,37.8c-0.1,0.2-0.3,0.3-0.5,0.4h-2.9c-0.2,0-0.3,0-0.3-0.1c0-0.1,0-0.2,0.1-0.3c1.9-2.9,3.5-6.1,4.6-9.5
	c2-5.9,2-12.4,0-18.3c-1.1-3.3-2.7-6.5-4.6-9.5c-0.2-0.3-0.1-0.4,0.2-0.4h2.9c0.2,0,0.4,0.1,0.5,0.4c2.3,2.7,4.1,5.9,5.3,9.2
	c2.2,6.2,2.2,12.9,0,19.1C478,32,476.2,35.1,473.9,37.8z"/>
<path class="st2" d="M517.3,3.4c-0.3,0-0.6,0.3-0.8,0.9c-0.3,0.8-0.4,1.6-0.4,2.5v6.6c0,1.2-0.2,2.3-0.6,3.4
	c-0.4,0.9-1.1,1.7-1.9,2.3c0.8,0.6,1.5,1.4,1.9,2.4c0.5,1.1,0.7,2.2,0.6,3.3v6.7c0,0.8,0.1,1.7,0.4,2.5c0.3,0.6,0.5,0.9,0.8,0.9h1.8
	c0.3,0,0.4,0.2,0.4,0.5v2.4c0,0.3-0.1,0.5-0.4,0.5H517c-0.4,0-0.8,0-1.3-0.2c-0.6-0.1-1.2-0.4-1.7-0.8c-0.5-0.4-0.8-0.8-1.1-1.4
	c-0.3-0.5-0.5-1.1-0.6-1.7c-0.1-0.6-0.2-1.2-0.2-1.8v-6.8c0-0.6,0-1.2-0.1-1.8c-0.1-0.4-0.2-0.9-0.3-1.3c-0.1-0.3-0.3-0.6-0.4-0.8
	c-0.1-0.2-0.3-0.3-0.4-0.5c-0.2-0.2-0.3-0.3-0.5-0.4c-0.3-0.1-0.7-0.2-1-0.3c-0.2,0-0.4-0.1-0.6-0.1c-0.1-0.1-0.1-0.2-0.1-0.3v-1.6
	c0-0.1,0-0.2,0.1-0.3c0.2-0.1,0.4-0.1,0.6-0.1c0.3-0.1,0.7-0.2,1-0.3c0.2-0.1,0.4-0.2,0.5-0.4c0.2-0.2,0.3-0.3,0.4-0.5
	c0.2-0.3,0.3-0.5,0.4-0.8c0.1-0.4,0.3-0.8,0.3-1.3c0.1-0.6,0.1-1.2,0.1-1.8V5.9c0-0.6,0.1-1.2,0.2-1.8c0.1-0.6,0.3-1.2,0.6-1.7
	c0.3-0.5,0.7-1,1.1-1.4c0.5-0.4,1-0.7,1.7-0.8c0.4-0.1,0.8-0.2,1.3-0.2h2.1c0.3,0,0.4,0.1,0.4,0.4v2.4c0,0.3-0.1,0.5-0.4,0.5H517.3z
	"/>
<path class="st2" d="M539,20.3c-0.3,0.1-0.7,0.2-1,0.3c-0.2,0.1-0.4,0.2-0.5,0.4c-0.2,0.2-0.3,0.3-0.4,0.5c-0.2,0.3-0.3,0.5-0.4,0.8
	c-0.1,0.4-0.3,0.8-0.3,1.3c-0.1,0.6-0.2,1.2-0.1,1.8v6.8c0,0.6-0.1,1.2-0.2,1.8c-0.1,0.6-0.3,1.2-0.6,1.7c-0.3,0.5-0.7,1-1.1,1.4
	c-0.5,0.4-1.1,0.7-1.7,0.8c-0.4,0.1-0.8,0.2-1.3,0.2h-2.1c-0.3,0-0.4-0.2-0.4-0.5v-2.4c0-0.3,0.1-0.5,0.4-0.5h1.8
	c0.3,0,0.6-0.3,0.8-0.9c0.3-0.8,0.4-1.6,0.4-2.5v-6.7c0-1.1,0.2-2.3,0.6-3.3c0.5-0.9,1.1-1.7,1.9-2.4c-0.8-0.6-1.5-1.4-1.9-2.3
	c-0.5-1.1-0.7-2.2-0.7-3.4V6.7c0-0.8-0.1-1.7-0.4-2.5c-0.3-0.6-0.5-0.9-0.8-0.9h-1.8c-0.3,0-0.4-0.2-0.4-0.5V0.5
	c0-0.3,0.1-0.4,0.4-0.4h2c0.4,0,0.8,0,1.3,0.2c0.6,0.1,1.2,0.4,1.7,0.8c0.5,0.4,0.8,0.8,1.1,1.4c0.3,0.5,0.5,1.1,0.6,1.7
	c0.1,0.6,0.2,1.2,0.2,1.8v6.8c0,0.6,0,1.2,0.1,1.8c0.1,0.4,0.2,0.9,0.3,1.3c0.1,0.3,0.3,0.6,0.5,0.8c0.1,0.2,0.3,0.4,0.4,0.5
	c0.1,0.1,0.3,0.3,0.5,0.4c0.3,0.1,0.7,0.3,1,0.3c0.2,0,0.4,0.1,0.6,0.1c0.1,0.1,0.1,0.2,0.1,0.3v1.7C539.7,20,539.5,20.2,539,20.3z"
	/>
</svg>
