<svg id="Layer_2" data-name="Layer 2" xmlns="http://www.w3.org/2000/svg" viewBox="0 0 539.74 38.61"><defs><style>.cls-1{fill:#c294c3;}.cls-2{fill:#231f20;}.cls-3{fill:#5eb3b3;}</style></defs><title>logosvg</title><path class="cls-1" d="M254.9,385.52a6.15,6.15,0,0,0-1.23-.49,6.51,6.51,0,0,0-1.73-.21,2.58,2.58,0,0,0-1.72.47,3.59,3.59,0,0,0-1,1.25c-.14.31-.29.67-.45,1.09s-.31.89-.47,1.44l-.77,2.69h6c.31,0,.42.16.33.47l-.87,3a.69.69,0,0,1-.23.33.63.63,0,0,1-.37.14h-6l-4.22,14.7a.58.58,0,0,1-.6.47h-3.2c-.31,0-.42-.16-.33-.47l4.22-14.7h-4.37a.36.36,0,0,1-.3-.14.41.41,0,0,1,0-.33l.88-3a.58.58,0,0,1,.23-.33.59.59,0,0,1,.37-.14h4.33l.69-2.42a25.13,25.13,0,0,1,1.23-3.39,10.75,10.75,0,0,1,1.72-2.69,7.5,7.5,0,0,1,2.24-1.62,7.94,7.94,0,0,1,3.44-.64,10.09,10.09,0,0,1,2,.19,5.41,5.41,0,0,1,1.61.55c.16.1.19.29.12.55l-.92,2.65C255.29,385.38,255.11,385.57,254.9,385.52Z" transform="translate(-237.49 -378.11)"/><path class="cls-1" d="M267.12,408.18a12,12,0,0,1-3.38,2.48,8.58,8.58,0,0,1-3.7.84,5.84,5.84,0,0,1-3.21-.82A4.91,4.91,0,0,1,255,408.4a8.33,8.33,0,0,1-.58-3.38,16.13,16.13,0,0,1,.67-4.09,20.05,20.05,0,0,1,1.68-4.1,14.86,14.86,0,0,1,2.5-3.35,11.4,11.4,0,0,1,3.17-2.26,8.42,8.42,0,0,1,3.7-.82,5.79,5.79,0,0,1,3.22.82,5,5,0,0,1,1.89,2.26,8.15,8.15,0,0,1,.58,3.35,16.2,16.2,0,0,1-.67,4.1,18.49,18.49,0,0,1-1.66,4A16.21,16.21,0,0,1,267.12,408.18Zm-2.12-14a3.31,3.31,0,0,0-1.89.58,6.79,6.79,0,0,0-1.59,1.54,13.74,13.74,0,0,0-1.32,2.17,13.94,13.94,0,0,0-.95,2.42,12,12,0,0,0-.44,2.43,9,9,0,0,0,.08,2.17,3,3,0,0,0,.7,1.56,2,2,0,0,0,1.55.58,3.31,3.31,0,0,0,1.86-.58,6.28,6.28,0,0,0,1.62-1.56,13.19,13.19,0,0,0,1.32-2.17,14,14,0,0,0,1-2.43,12.13,12.13,0,0,0,.43-2.4,8.31,8.31,0,0,0-.09-2.15,3.05,3.05,0,0,0-.72-1.56A1.94,1.94,0,0,0,265,394.22Z" transform="translate(-237.49 -378.11)"/><path class="cls-1" d="M272.18,410.91a.32.32,0,0,1-.29-.14.45.45,0,0,1,0-.37l.87-3A.65.65,0,0,1,273,407a.59.59,0,0,1,.37-.14h2.45l3.09-10.76.39-1.36h-3.2a.34.34,0,0,1-.29-.14.45.45,0,0,1,0-.37l.84-2.93a.63.63,0,0,1,.23-.33.61.61,0,0,1,.37-.14h6.4a.26.26,0,0,1,.22.1.29.29,0,0,1,0,.26l-.95,3.31a12,12,0,0,1,1.24-1.42,11.65,11.65,0,0,1,1.29-1.09,10.67,10.67,0,0,1,1.47-.9,9.68,9.68,0,0,1,2.21-.72,8.32,8.32,0,0,1,3.24.08,4.41,4.41,0,0,1,2.28,1.2.33.33,0,0,1,.06.36l-.17.31L292.46,395a.72.72,0,0,1-.34.31.42.42,0,0,1-.42-.08,4.93,4.93,0,0,0-1.79-.7,6,6,0,0,0-2.15,0,6.47,6.47,0,0,0-3.39,1.76,9.25,9.25,0,0,0-2.1,2.84,27.45,27.45,0,0,0-1.21,3.4l-1.25,4.36h4.06a.34.34,0,0,1,.29.14.37.37,0,0,1,0,.33l-.87,3a.61.61,0,0,1-.62.51Z" transform="translate(-237.49 -378.11)"/><path class="cls-2" d="M305.48,416.25a.64.64,0,0,1-.54-.35,31.45,31.45,0,0,1-5.33-9.14,28.49,28.49,0,0,1,0-19.11,32.06,32.06,0,0,1,5.33-9.19.66.66,0,0,1,.54-.35h2.89c.34,0,.42.15.23.43A42,42,0,0,0,304,388a29.47,29.47,0,0,0-1.48,9.14,30,30,0,0,0,1.46,9.17,40.93,40.93,0,0,0,4.62,9.47.33.33,0,0,1,.08.3c0,.09-.13.13-.31.13Z" transform="translate(-237.49 -378.11)"/><path class="cls-2" d="M329.66,410.44c-.59.21-1.22.41-1.89.59a8.51,8.51,0,0,1-6.26-.8,9.92,9.92,0,0,1-3.39-3.08,14.89,14.89,0,0,1-2.13-4.59A19.57,19.57,0,0,1,316,392a14,14,0,0,1,2.11-4.49,10,10,0,0,1,3.39-3,8.37,8.37,0,0,1,4-1.09,12.2,12.2,0,0,1,2,.17,11.28,11.28,0,0,1,2.16.6c.21.08.33.17.37.28a1.24,1.24,0,0,1,0,.54l0,3c0,.36-.05.55-.15.56a1.24,1.24,0,0,1-.55-.13,8.39,8.39,0,0,0-3.82-.9,4.55,4.55,0,0,0-2.54.76,5.67,5.67,0,0,0-1.91,2.22,13.76,13.76,0,0,0-1.13,3.28,16.59,16.59,0,0,0-.39,3.49,16,16,0,0,0,.43,3.53,14.87,14.87,0,0,0,1.17,3.3,5.92,5.92,0,0,0,2,2.26,4.56,4.56,0,0,0,2.5.82,8.72,8.72,0,0,0,1.81-.2,11.59,11.59,0,0,0,1.89-.58q.39-.19.51-.12a.34.34,0,0,1,.12.31l.11,3a1,1,0,0,1,0,.53A.63.63,0,0,1,329.66,410.44Z" transform="translate(-237.49 -378.11)"/><path class="cls-2" d="M345.85,410.91a.42.42,0,0,1-.47-.47V400.07a10.28,10.28,0,0,0-.66-4.27,2.23,2.23,0,0,0-2.15-1.35c-2.36,0-3.68,1.38-3.94,4.14v11.85c0,.31-.14.47-.43.47h-3.27a.37.37,0,0,1-.29-.14.42.42,0,0,1-.14-.33V382.05a.42.42,0,0,1,.14-.33.4.4,0,0,1,.29-.14h3a.35.35,0,0,1,.27.14.48.48,0,0,1,.12.33v10.53a5.54,5.54,0,0,1,2-1.58,5.62,5.62,0,0,1,2.36-.52q6.82,0,6.82,9.55v10.41a.44.44,0,0,1-.13.33.39.39,0,0,1-.3.14Z" transform="translate(-237.49 -378.11)"/><path class="cls-2" d="M366.09,410.91a.73.73,0,0,1-.33,0s-.06-.12-.06-.27v-1.79a6,6,0,0,1-2.34,2,6.43,6.43,0,0,1-2.85.69,8,8,0,0,1-2.4-.41,6.15,6.15,0,0,1-2.16-1.21,5.79,5.79,0,0,1-1.42-2,6.46,6.46,0,0,1-.53-2.73,6.87,6.87,0,0,1,.68-3.06,6,6,0,0,1,2.09-2.33,10.07,10.07,0,0,1,3.41-1.38,24.13,24.13,0,0,1,5.13-.45,5.89,5.89,0,0,0-.14-1.3,3.66,3.66,0,0,0-.48-1.16,3,3,0,0,0-1-.91,3.08,3.08,0,0,0-1.58-.37,7.69,7.69,0,0,0-2.59.47A10.94,10.94,0,0,0,357,396c-.39.26-.65.38-.8.35s-.21-.16-.21-.42v-3c0-.05,0-.15,0-.29a.34.34,0,0,1,.14-.33,1.77,1.77,0,0,1,.5-.35,12.51,12.51,0,0,1,2.58-1.09,9.5,9.5,0,0,1,2.84-.43q3.75,0,5.6,1.89a7.47,7.47,0,0,1,1.85,5.44v8.58c0,.7,0,1.42,0,2.15a15.61,15.61,0,0,0,.14,1.94c0,.37-.12.55-.43.55Zm-7.92-6A2.53,2.53,0,0,0,359,407a2.67,2.67,0,0,0,1.76.68,4.21,4.21,0,0,0,3.39-1.61,6,6,0,0,0,1.33-3.92v-.43q-4.19,0-5.74.84A2.59,2.59,0,0,0,358.17,404.94Z" transform="translate(-237.49 -378.11)"/><path class="cls-2" d="M385.36,410.91a.44.44,0,0,1-.34-.17.62.62,0,0,1-.13-.38V399.48a8.49,8.49,0,0,0-.72-4.05,2.37,2.37,0,0,0-2.17-1.25,3.4,3.4,0,0,0-2.79,1.42,6.59,6.59,0,0,0-1.11,4.12V410.4c0,.34-.15.51-.47.51h-3.19a.44.44,0,0,1-.34-.17.62.62,0,0,1-.13-.38v-14c0-1,0-1.93,0-2.84s-.05-1.63-.1-2.15c-.05-.34.13-.51.55-.51h3c.28,0,.4.11.35.32l0,1.42A5.43,5.43,0,0,1,379.6,391a5,5,0,0,1,2.52-.67,6.53,6.53,0,0,1,4.85,2.09q2.05,2.08,2,6.49v11.5c0,.34-.15.51-.47.51Z" transform="translate(-237.49 -378.11)"/><path class="cls-2" d="M399.82,416.72a17.56,17.56,0,0,1-2.59-.19,10.17,10.17,0,0,1-2.55-.74,1.32,1.32,0,0,1-.41-.28.49.49,0,0,1-.1-.35l.16-3.24c0-.44.24-.55.66-.35a9.58,9.58,0,0,0,2.42.94,10.22,10.22,0,0,0,2.45.31,4.26,4.26,0,0,0,3.34-1.34,5.22,5.22,0,0,0,1.23-3.46,5.43,5.43,0,0,1-1.88,1.53,5.07,5.07,0,0,1-2.18.5,6.63,6.63,0,0,1-2.94-.62,7.46,7.46,0,0,1-2.4-2,9.21,9.21,0,0,1-1.72-3.18,12.11,12.11,0,0,1-.58-3.7,11.94,11.94,0,0,1,2.06-7.37,6.52,6.52,0,0,1,5.46-2.73,6.68,6.68,0,0,1,1.86.25,4.38,4.38,0,0,1,1.6.86,4.71,4.71,0,0,1,1.07,1.22l0-1.44a.59.59,0,0,1,0-.41.54.54,0,0,1,.39-.1H408c.26,0,.39.19.39.55v15q0,4.91-2.19,7.62A7.66,7.66,0,0,1,399.82,416.72Zm.86-22.42a3,3,0,0,0-2.75,1.81,9.6,9.6,0,0,0-.95,4.47,10.13,10.13,0,0,0,.29,2.49,5.18,5.18,0,0,0,.82,1.83A5.13,5.13,0,0,0,399.2,406a2.28,2.28,0,0,0,1.33.41A2.76,2.76,0,0,0,402,406a3.93,3.93,0,0,0,1.11-1.08,6.06,6.06,0,0,0,.8-1.83,9.27,9.27,0,0,0,.33-2.53,9.57,9.57,0,0,0-.94-4.49A2.89,2.89,0,0,0,400.68,394.3Z" transform="translate(-237.49 -378.11)"/><path class="cls-2" d="M428.18,402.06a.62.62,0,0,1-.14.45.49.49,0,0,1-.37.13H417a6.18,6.18,0,0,0,1.08,3.53,3.78,3.78,0,0,0,3.33,1.46,8.46,8.46,0,0,0,2.48-.33,7.53,7.53,0,0,0,2.2-1.15c.21-.1.33-.09.37,0a1.63,1.63,0,0,1,.06.47v2.77a1,1,0,0,1-.12.53,1.4,1.4,0,0,1-.39.37,10.77,10.77,0,0,1-2,.85,8.88,8.88,0,0,1-2.56.32q-4.44,0-6.63-2.85a12.09,12.09,0,0,1-2.18-7.53,15.73,15.73,0,0,1,.47-3.88,11,11,0,0,1,1.46-3.41,8.31,8.31,0,0,1,2.51-2.5,6.39,6.39,0,0,1,3.51-1,6.75,6.75,0,0,1,3.57.89,7.25,7.25,0,0,1,2.38,2.36,10.67,10.67,0,0,1,1.33,3.34,19.16,19.16,0,0,1,.41,4.05c0,.19,0,.39,0,.61S428.18,402,428.18,402.06Zm-7.72-8a2.74,2.74,0,0,0-1.66.53,3.56,3.56,0,0,0-1.13,1.4,6.62,6.62,0,0,0-.55,1.6,6.75,6.75,0,0,0-.14,1.15h7a6.75,6.75,0,0,0-.14-1.15,6.62,6.62,0,0,0-.55-1.6,3.44,3.44,0,0,0-1.15-1.4A2.81,2.81,0,0,0,420.46,394.1Z" transform="translate(-237.49 -378.11)"/><path class="cls-3" d="M448.11,410.91a.31.31,0,0,1-.29-.14.39.39,0,0,1,0-.37l.87-3a.63.63,0,0,1,.23-.33.61.61,0,0,1,.37-.14h5.3l3.45-12h-4.6a.35.35,0,0,1-.3-.13.46.46,0,0,1,0-.37l.88-3.05a.58.58,0,0,1,.23-.33.59.59,0,0,1,.37-.14h8.34a.36.36,0,0,1,.3.14.37.37,0,0,1,0,.33l-4.46,15.56h4.79a.36.36,0,0,1,.3.14.41.41,0,0,1,0,.33l-.88,3a.6.6,0,0,1-.61.51Zm13.49-23.13a2.14,2.14,0,0,1-1.86-.85,2.34,2.34,0,0,1-.26-2.07,4.17,4.17,0,0,1,1.48-2.17,3.75,3.75,0,0,1,2.36-.87,2.21,2.21,0,0,1,1.91.87,2.41,2.41,0,0,1,.25,2.17,4,4,0,0,1-1.47,2.07A3.88,3.88,0,0,1,461.6,387.78Z" transform="translate(-237.49 -378.11)"/><path class="cls-3" d="M478.68,410.91a.3.3,0,0,1-.28-.17.62.62,0,0,1,0-.38l3.12-10.88a8,8,0,0,0,.44-4.05,1.67,1.67,0,0,0-1.8-1.25,4.63,4.63,0,0,0-3.2,1.42,8.82,8.82,0,0,0-2.29,4.12l-3.06,10.68a.62.62,0,0,1-.62.51h-3.2a.3.3,0,0,1-.28-.17.62.62,0,0,1,0-.38l4-14c.28-1,.55-1.93.79-2.84s.42-1.63.52-2.15q.08-.51.69-.51h3c.28,0,.37.11.26.32l-.45,1.42a8.12,8.12,0,0,1,2.31-1.61,6.18,6.18,0,0,1,2.71-.67,4.85,4.85,0,0,1,4.26,2.09q1.45,2.08.18,6.49l-3.29,11.5a.62.62,0,0,1-.62.51Z" transform="translate(-237.49 -378.11)"/><path class="cls-2" d="M520.1,387.94v22.5a.42.42,0,0,1-.47.47h-3.47a.42.42,0,0,1-.47-.47v-22.5h-6.12a.42.42,0,0,1-.33-.14.5.5,0,0,1-.14-.37v-3.12a.48.48,0,0,1,.47-.47h16.69a.48.48,0,0,1,.47.47v3.12c0,.34-.16.51-.47.51Z" transform="translate(-237.49 -378.11)"/><path class="cls-2" d="M545.18,402.06a.62.62,0,0,1-.14.45.49.49,0,0,1-.37.13H534a6.18,6.18,0,0,0,1.08,3.53,3.78,3.78,0,0,0,3.33,1.46,8.46,8.46,0,0,0,2.48-.33,7.53,7.53,0,0,0,2.2-1.15c.21-.1.33-.09.37,0a1.63,1.63,0,0,1,.06.47v2.77a1,1,0,0,1-.12.53,1.4,1.4,0,0,1-.39.37,10.77,10.77,0,0,1-2,.85,8.88,8.88,0,0,1-2.56.32q-4.44,0-6.63-2.85a12.09,12.09,0,0,1-2.18-7.53,15.73,15.73,0,0,1,.47-3.88,11,11,0,0,1,1.46-3.41,8.31,8.31,0,0,1,2.51-2.5,6.39,6.39,0,0,1,3.51-1,6.75,6.75,0,0,1,3.57.89,7.25,7.25,0,0,1,2.38,2.36,10.67,10.67,0,0,1,1.33,3.34,19.16,19.16,0,0,1,.41,4.05c0,.19,0,.39,0,.61S545.18,402,545.18,402.06Zm-7.72-8a2.74,2.74,0,0,0-1.66.53,3.56,3.56,0,0,0-1.13,1.4,6.62,6.62,0,0,0-.55,1.6,6.75,6.75,0,0,0-.14,1.15h7a6.75,6.75,0,0,0-.14-1.15,6.62,6.62,0,0,0-.55-1.6,3.44,3.44,0,0,0-1.15-1.4A2.81,2.81,0,0,0,537.46,394.1Z" transform="translate(-237.49 -378.11)"/><path class="cls-2" d="M563.59,410.83a5.34,5.34,0,0,1-1,.28c-.39.07-.83.14-1.33.19s-.93.09-1.32.1-.82,0-1.29,0a9.27,9.27,0,0,1-3.84-1,9.9,9.9,0,0,1-2.77-2.22,9.12,9.12,0,0,1-1.79-3.24,12.83,12.83,0,0,1-.61-4,11.64,11.64,0,0,1,.74-4.19,10.36,10.36,0,0,1,2.05-3.34,8.84,8.84,0,0,1,6.92-2.92,14.89,14.89,0,0,1,2.09.17,12.26,12.26,0,0,1,2.24.57.43.43,0,0,1,.24.13.78.78,0,0,1,0,.45l-.36,2.73a.59.59,0,0,1-.15.39c-.08.08-.22.09-.43,0a9.36,9.36,0,0,0-1.79-.47,12.81,12.81,0,0,0-2-.15,4.61,4.61,0,0,0-4.12,1.87,8.28,8.28,0,0,0-1.27,4.72,7.66,7.66,0,0,0,1.27,4.52,5.26,5.26,0,0,0,3.73,2.15,10.47,10.47,0,0,0,4.29-.35c.23-.11.38-.12.44,0a.71.71,0,0,1,.14.35l.2,2.73a.86.86,0,0,1,0,.41C563.92,410.71,563.79,410.78,563.59,410.83Z" transform="translate(-237.49 -378.11)"/><path class="cls-2" d="M579.85,410.91a.42.42,0,0,1-.47-.47V400.07a10.28,10.28,0,0,0-.66-4.27,2.23,2.23,0,0,0-2.15-1.35c-2.36,0-3.68,1.38-3.94,4.14v11.85c0,.31-.14.47-.43.47h-3.27a.37.37,0,0,1-.29-.14.42.42,0,0,1-.14-.33V382.05a.42.42,0,0,1,.14-.33.4.4,0,0,1,.29-.14h3a.35.35,0,0,1,.27.14.48.48,0,0,1,.12.33v10.53a5.54,5.54,0,0,1,2-1.58,5.62,5.62,0,0,1,2.36-.52q6.82,0,6.82,9.55v10.41a.44.44,0,0,1-.13.33.39.39,0,0,1-.3.14Z" transform="translate(-237.49 -378.11)"/><path class="cls-2" d="M599.86,410.91a.44.44,0,0,1-.34-.17.62.62,0,0,1-.13-.38V399.48a8.49,8.49,0,0,0-.72-4.05,2.37,2.37,0,0,0-2.17-1.25,3.4,3.4,0,0,0-2.79,1.42,6.59,6.59,0,0,0-1.11,4.12V410.4c0,.34-.15.51-.47.51h-3.19a.44.44,0,0,1-.34-.17.62.62,0,0,1-.13-.38v-14c0-1,0-1.93,0-2.84s-.05-1.63-.1-2.15c-.05-.34.13-.51.55-.51h3c.28,0,.4.11.35.32l0,1.42A5.43,5.43,0,0,1,594.1,391a5,5,0,0,1,2.52-.67,6.53,6.53,0,0,1,4.85,2.09q2.06,2.08,2,6.49v11.5c0,.34-.15.51-.47.51Z" transform="translate(-237.49 -378.11)"/><path class="cls-2" d="M621.54,408.18a7.75,7.75,0,0,1-2.67,2.48,7.59,7.59,0,0,1-6.9,0,7.48,7.48,0,0,1-2.54-2.28,10.46,10.46,0,0,1-1.54-3.38,16.7,16.7,0,0,1,0-8.19,10.2,10.2,0,0,1,1.54-3.35,7.54,7.54,0,0,1,2.52-2.26,7.71,7.71,0,0,1,6.92,0,7.48,7.48,0,0,1,2.53,2.26,10,10,0,0,1,1.54,3.35,15.88,15.88,0,0,1,.51,4.1,15.13,15.13,0,0,1-.51,4A10.9,10.9,0,0,1,621.54,408.18Zm-6.12-14a2.59,2.59,0,0,0-1.72.58,4.45,4.45,0,0,0-1.15,1.54,9.87,9.87,0,0,0-.7,2.17,11.64,11.64,0,0,0-.26,2.42,11.52,11.52,0,0,0,.26,2.43,10.23,10.23,0,0,0,.7,2.17,4.35,4.35,0,0,0,1.15,1.56,2.8,2.8,0,0,0,3.41,0,4.28,4.28,0,0,0,1.17-1.56,10.23,10.23,0,0,0,.71-2.17,12.21,12.21,0,0,0,.25-2.43,12.07,12.07,0,0,0-.25-2.4,10,10,0,0,0-.71-2.15,4.64,4.64,0,0,0-1.17-1.56A2.55,2.55,0,0,0,615.42,394.22Z" transform="translate(-237.49 -378.11)"/><path class="cls-2" d="M627.9,410.91a.42.42,0,0,1-.33-.14.46.46,0,0,1-.14-.37v-3a.42.42,0,0,1,.14-.33.45.45,0,0,1,.33-.14h5.3V385.64h-4.06a.45.45,0,0,1-.33-.14.49.49,0,0,1-.13-.37v-3a.44.44,0,0,1,.13-.33.45.45,0,0,1,.33-.14h7.8a.49.49,0,0,1,.34.14.44.44,0,0,1,.13.33v24.8h4.8a.48.48,0,0,1,.47.47v3c0,.34-.16.51-.47.51Z" transform="translate(-237.49 -378.11)"/><path class="cls-2" d="M660.54,408.18a7.75,7.75,0,0,1-2.67,2.48,7.59,7.59,0,0,1-6.9,0,7.48,7.48,0,0,1-2.54-2.28,10.46,10.46,0,0,1-1.54-3.38,16.7,16.7,0,0,1,0-8.19,10.2,10.2,0,0,1,1.54-3.35,7.54,7.54,0,0,1,2.52-2.26,7.71,7.71,0,0,1,6.92,0,7.48,7.48,0,0,1,2.53,2.26,10,10,0,0,1,1.54,3.35,15.88,15.88,0,0,1,.51,4.1,15.13,15.13,0,0,1-.51,4A10.9,10.9,0,0,1,660.54,408.18Zm-6.12-14a2.59,2.59,0,0,0-1.72.58,4.45,4.45,0,0,0-1.15,1.54,9.87,9.87,0,0,0-.7,2.17,11.64,11.64,0,0,0-.26,2.42,11.52,11.52,0,0,0,.26,2.43,10.23,10.23,0,0,0,.7,2.17,4.35,4.35,0,0,0,1.15,1.56,2.8,2.8,0,0,0,3.41,0,4.28,4.28,0,0,0,1.17-1.56,10.23,10.23,0,0,0,.71-2.17,12.21,12.21,0,0,0,.25-2.43,12.07,12.07,0,0,0-.25-2.4,10,10,0,0,0-.71-2.15,4.64,4.64,0,0,0-1.17-1.56A2.55,2.55,0,0,0,654.42,394.22Z" transform="translate(-237.49 -378.11)"/><path class="cls-2" d="M672.82,416.72a17.56,17.56,0,0,1-2.59-.19,10.17,10.17,0,0,1-2.55-.74,1.32,1.32,0,0,1-.41-.28.49.49,0,0,1-.1-.35l.16-3.24c0-.44.24-.55.66-.35a9.58,9.58,0,0,0,2.42.94,10.22,10.22,0,0,0,2.45.31,4.26,4.26,0,0,0,3.34-1.34,5.22,5.22,0,0,0,1.23-3.46,5.43,5.43,0,0,1-1.88,1.53,5.07,5.07,0,0,1-2.18.5,6.63,6.63,0,0,1-2.94-.62,7.46,7.46,0,0,1-2.4-2,9.21,9.21,0,0,1-1.72-3.18,12.11,12.11,0,0,1-.58-3.7,11.94,11.94,0,0,1,2.06-7.37,6.52,6.52,0,0,1,5.46-2.73,6.68,6.68,0,0,1,1.86.25,4.38,4.38,0,0,1,1.6.86,4.71,4.71,0,0,1,1.07,1.22l0-1.44a.59.59,0,0,1,0-.41.54.54,0,0,1,.39-.1H681c.26,0,.39.19.39.55v15q0,4.91-2.19,7.62A7.66,7.66,0,0,1,672.82,416.72Zm.86-22.42a3,3,0,0,0-2.75,1.81,9.6,9.6,0,0,0-.95,4.47,10.13,10.13,0,0,0,.29,2.49,5.18,5.18,0,0,0,.82,1.83A5.13,5.13,0,0,0,672.2,406a2.28,2.28,0,0,0,1.33.41A2.76,2.76,0,0,0,675,406a3.93,3.93,0,0,0,1.11-1.08,6.06,6.06,0,0,0,.8-1.83,9.27,9.27,0,0,0,.33-2.53,9.57,9.57,0,0,0-.94-4.49A2.89,2.89,0,0,0,673.68,394.3Z" transform="translate(-237.49 -378.11)"/><path class="cls-2" d="M688.7,416.72a9.74,9.74,0,0,1-1.39-.08,4.65,4.65,0,0,1-1.19-.31.77.77,0,0,1-.31-.21.45.45,0,0,1-.08-.37l.24-2.58c0-.34.14-.45.43-.35a5.06,5.06,0,0,0,1,.22,7.91,7.91,0,0,0,.94,0,2.31,2.31,0,0,0,1-.17,1.48,1.48,0,0,0,.63-.53c.13-.26.26-.52.39-.8s.25-.56.37-.87.24-.67.39-1.08.26-.8.37-1.19l-5.93-17.16c-.11-.31,0-.46.31-.46h3.24c.26,0,.41.15.47.47l3.9,11.66,4-11.66c.06-.32.21-.47.47-.47h3.28c.28,0,.37.15.27.46l-7.1,20.25a9.55,9.55,0,0,1-2.34,4A4.82,4.82,0,0,1,688.7,416.72Z" transform="translate(-237.49 -378.11)"/><path class="cls-2" d="M711.4,415.9a.66.66,0,0,1-.55.35H708c-.18,0-.28,0-.31-.13a.36.36,0,0,1,.08-.3,40.14,40.14,0,0,0,4.62-9.47,29.24,29.24,0,0,0,0-18.31,42,42,0,0,0-4.6-9.5c-.18-.28-.1-.43.23-.43h2.89a.68.68,0,0,1,.55.35,32.25,32.25,0,0,1,5.32,9.19,28.33,28.33,0,0,1,0,19.11A31.63,31.63,0,0,1,711.4,415.9Z" transform="translate(-237.49 -378.11)"/><path class="cls-3" d="M754.76,381.47c-.28,0-.56.29-.82.87a6.3,6.3,0,0,0-.39,2.48v6.63a7.79,7.79,0,0,1-.64,3.35,6.26,6.26,0,0,1-1.93,2.34,6.73,6.73,0,0,1,1.93,2.36,7.71,7.71,0,0,1,.64,3.34v6.67a6.1,6.1,0,0,0,.39,2.45c.26.58.54.86.82.86h1.8c.26,0,.39.16.39.47v2.38c0,.31-.13.47-.39.47h-2.07a4.47,4.47,0,0,1-1.25-.16,3.89,3.89,0,0,1-1.65-.82,4.88,4.88,0,0,1-1.12-1.36,6.39,6.39,0,0,1-.62-1.7,8.72,8.72,0,0,1-.2-1.81V403.5a10.5,10.5,0,0,0-.13-1.81,7,7,0,0,0-.33-1.27,3.65,3.65,0,0,0-.43-.82,5.14,5.14,0,0,0-.43-.51,2,2,0,0,0-.53-.37,6.9,6.9,0,0,0-1-.33,1.85,1.85,0,0,1-.61-.15.38.38,0,0,1-.09-.28v-1.64a.35.35,0,0,1,.09-.27,1.85,1.85,0,0,1,.61-.15,5.53,5.53,0,0,0,1-.3,1.75,1.75,0,0,0,.53-.37,4.4,4.4,0,0,0,.43-.52,4.08,4.08,0,0,0,.43-.84,7,7,0,0,0,.33-1.27,10.58,10.58,0,0,0,.13-1.81V384a8.65,8.65,0,0,1,.2-1.81,6.65,6.65,0,0,1,.62-1.72,4.49,4.49,0,0,1,1.12-1.36,3.86,3.86,0,0,1,1.65-.8,4.13,4.13,0,0,1,1.25-.16h2.07c.26,0,.39.14.39.43V381c0,.31-.13.47-.39.47Z" transform="translate(-237.49 -378.11)"/><path class="cls-3" d="M776.53,398.39a7.65,7.65,0,0,0-1,.33,2.11,2.11,0,0,0-.53.37,4.09,4.09,0,0,0-.42.51,3.28,3.28,0,0,0-.43.82,7,7,0,0,0-.33,1.27,9.5,9.5,0,0,0-.14,1.81v6.79a8.72,8.72,0,0,1-.2,1.81,6.06,6.06,0,0,1-.62,1.7,5,5,0,0,1-1.11,1.36,4,4,0,0,1-1.66.82,4.42,4.42,0,0,1-1.25.16h-2.06c-.26,0-.39-.16-.39-.47v-2.38c0-.31.13-.47.39-.47h1.79c.29,0,.56-.28.82-.86a6.1,6.1,0,0,0,.39-2.45v-6.67a7.71,7.71,0,0,1,.64-3.34,7,7,0,0,1,1.89-2.36,6.61,6.61,0,0,1-1.91-2.34,7.63,7.63,0,0,1-.66-3.35v-6.63a6.54,6.54,0,0,0-.37-2.48c-.25-.58-.51-.87-.8-.87h-1.79c-.26,0-.39-.16-.39-.47v-2.38c0-.29.13-.43.39-.43h2a3.87,3.87,0,0,1,1.25.16,4,4,0,0,1,1.66.8,4.6,4.6,0,0,1,1.11,1.36,6.31,6.31,0,0,1,.62,1.72,8.65,8.65,0,0,1,.2,1.81v6.75a9.57,9.57,0,0,0,.14,1.81,5.6,5.6,0,0,0,.35,1.27,4.06,4.06,0,0,0,.45.84,3.61,3.61,0,0,0,.42.52,1.83,1.83,0,0,0,.51.35,4.76,4.76,0,0,0,1,.32,1.77,1.77,0,0,1,.6.15.35.35,0,0,1,.1.27V398C777.23,398.15,777,398.29,776.53,398.39Z" transform="translate(-237.49 -378.11)"/></svg>